<svg xmlns="http://www.w3.org/2000/svg" width="64" height="64" viewBox="0 0 64 64">
  <rect width="64" height="64" rx="14" fill="#F4F1EA"/>
  <rect x="3" y="3" width="58" height="58" rx="12" fill="none" stroke="#10263B" stroke-width="2" stroke-opacity=".25"/>
  <!-- brass gooseneck S -->
  <path d="M42 20c-3-5-9-6-14-4-6 2-8 8-4 12 3 3 9 3 12 6 3 3 1 8-4 9-5 1-10-1-12-5"
        fill="none" stroke="#C6892B" stroke-width="7" stroke-linecap="round"/>
  <path d="M42 20c-3-5-9-6-14-4-6 2-8 8-4 12 3 3 9 3 12 6 3 3 1 8-4 9-5 1-10-1-12-5"
        fill="none" stroke="#8A5E1B" stroke-width="1.5" stroke-linecap="round" stroke-opacity=".6"/>
  <!-- teal drip -->
  <path d="M22 46c0 3-2 4-2 6a2 2 0 0 0 4 0c0-2-2-3-2-6z" fill="#3E8E8A"/>
</svg>
